<?xml version="1.0" standalone="no"?>
<!DOCTYPE svg PUBLIC "-//W3C//DTD SVG 20010904//EN"
 "http://www.w3.org/TR/2001/REC-SVG-20010904/DTD/svg10.dtd">
<svg version="1.0" xmlns="http://www.w3.org/2000/svg"
 width="730.000000pt" height="730.000000pt" viewBox="0 0 730.000000 730.000000"
 preserveAspectRatio="xMidYMid meet">
<metadata>
Created by potrace 1.14, written by Peter Selinger 2001-2017
</metadata>
<g transform="translate(0.000000,730.000000) scale(0.100000,-0.100000)"
fill="#000000" stroke="none">
<path d="M2239 6706 c-888 -133 -1076 -164 -1074 -176 1 -8 6 -40 10 -70 4
-30 9 -64 11 -75 2 -11 6 -40 9 -65 3 -25 7 -56 10 -70 2 -14 7 -45 10 -70 3
-25 8 -56 10 -70 2 -14 7 -45 10 -70 3 -25 10 -70 15 -100 5 -30 12 -77 16
-105 3 -27 8 -59 10 -70 2 -11 7 -45 10 -75 3 -30 7 -57 9 -60 2 -3 6 -35 10
-70 3 -36 8 -72 10 -80 4 -12 -89 -40 -473 -144 -262 -71 -480 -131 -484 -133
-3 -2 -2 -19 4 -39 11 -41 16 -64 24 -114 3 -19 8 -38 10 -41 2 -3 6 -21 9
-40 3 -19 12 -61 20 -94 15 -61 31 -136 41 -190 3 -16 9 -43 14 -60 5 -16 12
-46 15 -65 3 -19 12 -62 20 -95 26 -111 77 -340 81 -365 3 -14 14 -62 24 -108
11 -46 22 -96 25 -110 2 -15 16 -79 30 -142 27 -119 32 -139 39 -178 3 -13 7
-31 10 -40 3 -9 7 -28 10 -42 3 -14 10 -47 16 -75 5 -27 13 -61 16 -75 3 -14
23 -106 45 -205 22 -99 42 -189 45 -200 2 -11 6 -31 9 -45 4 -14 8 -36 11 -50
3 -14 7 -33 10 -42 6 -20 12 -51 20 -95 17 -106 -2 -86 459 -458 237 -190 623
-502 860 -693 236 -191 547 -441 690 -557 143 -115 401 -323 573 -462 173
-139 317 -253 320 -253 4 0 491 564 1082 1254 l1074 1254 453 1823 c249 1003
450 1826 446 1829 -9 8 -3495 441 -3528 439 -11 -1 -504 -74 -1096 -163z"/>
</g>
</svg>
